<?xml version="1.0" encoding="utf-8"?>
<!-- Generator: Adobe Illustrator 25.0.0, SVG Export Plug-In . SVG Version: 6.00 Build 0)  -->
<svg version="1.1" id="Layer_1" xmlns="http://www.w3.org/2000/svg" xmlns:xlink="http://www.w3.org/1999/xlink" x="0px" y="0px"
	 viewBox="0 0 1920 1080" style="enable-background:new 0 0 1920 1080;" xml:space="preserve">
<style type="text/css">
	.st0{fill:#FFFFFF;}
</style>
<g>
	<path class="st0" d="M447.84,27.84c341.49,0,682.99,0,1024.56,0c0,341.46,0,682.94,0,1024.56c-341.47,0-683.01,0-1024.56,0
		C447.84,710.93,447.84,369.39,447.84,27.84z M1395.35,295.98c0.73-12.72,1.64-28.52,2.54-44.32c0.08-1.43,0.01-2.88,0.01-4.31
		c0-2.72-1.19-4.44-3.9-5.3c-4.88-1.54-9.66-3.37-14.52-4.93c-35.91-11.51-71.79-23.1-107.76-34.45
		c-87.47-27.59-174.98-55.06-262.47-82.59c-13.87-4.36-27.75-8.7-41.56-13.26c-4.01-1.32-7.77-1.56-11.64,0.1
		c-0.15,0.06-0.3,0.11-0.45,0.16c-39.45,12.5-78.89,25.06-118.37,37.47c-45.27,14.23-90.55,28.45-135.9,42.43
		c-48.71,15.02-97.53,29.69-145.4,47.3c-2.52,0.93-5.24,1.4-7.9,1.86c-2.83,0.49-5.73,0.57-8.56,1.09c-2.34,0.43-4.7,1.03-6.89,1.92
		c-3.83,1.56-6.14,4.58-6.81,8.64c-0.36,2.19-0.48,4.46-0.36,6.68c0.66,11.65,1.41,23.29,2.17,34.93c0.3,4.62,0.73,9.24,1.1,13.86
		c0.73,9.08,1.44,18.17,2.19,27.25c1.14,13.86,2.3,27.72,3.47,41.57c0.74,8.76,1.43,17.53,2.27,26.28
		c1.43,14.8,2.89,29.59,4.49,44.37c1.23,11.44,2.5,22.89,4.08,34.28c4.76,34.22,11.19,68.14,18.78,101.84
		c7.17,31.83,15.22,63.42,24.99,94.57c14.52,46.28,33.57,90.47,59.41,131.66c18.53,29.54,40.65,55.72,68.74,76.68
		c19.85,14.81,40.92,27.33,64.1,36.19c10.17,3.89,20.6,6.94,31.07,9.85c20.34,5.66,40.96,10.14,61.64,14.33
		c16.92,3.42,33.83,6.87,50.79,10.09c15.64,2.97,31.45,3.49,47.29,2.19c14.19-1.17,28.26-3.31,42.24-5.98
		c16.96-3.24,33.88-6.64,50.86-9.78c20.63-3.81,40.92-8.91,60.76-15.73c18.63-6.4,36.81-13.86,54-23.54
		c24.94-14.04,46.29-32.45,65.04-53.93c19.33-22.15,35.32-46.6,49.29-72.41c13.75-25.4,24.4-52.08,33.31-79.52
		c8.5-26.17,15.66-52.71,22.66-79.3c10.14-38.54,18.07-77.53,24.19-116.89c4.65-29.86,8.66-59.8,12.46-89.78
		c3.16-24.91,5.05-49.93,6.64-74.98C1394.14,321.41,1394.62,310.23,1395.35,295.98z"/>
	<path d="M1395.35,295.98c-0.74,14.25-1.21,25.43-1.92,36.6c-1.59,25.05-3.48,50.07-6.64,74.98c-3.8,29.98-7.81,59.92-12.46,89.78
		c-6.13,39.36-14.06,78.35-24.19,116.89c-7,26.6-14.16,53.14-22.66,79.3c-8.91,27.43-19.56,54.12-33.31,79.52
		c-13.97,25.81-29.95,50.27-49.29,72.41c-18.75,21.48-40.1,39.89-65.04,53.93c-17.2,9.68-35.37,17.14-54,23.54
		c-19.84,6.82-40.13,11.92-60.76,15.73c-16.97,3.14-33.9,6.54-50.86,9.78c-13.98,2.67-28.05,4.81-42.24,5.98
		c-15.84,1.31-31.65,0.79-47.29-2.19c-16.96-3.22-33.87-6.67-50.79-10.09c-20.68-4.19-41.3-8.67-61.64-14.33
		c-10.47-2.91-20.91-5.96-31.07-9.85c-23.18-8.86-44.25-21.39-64.1-36.19c-28.09-20.96-50.21-47.14-68.74-76.68
		c-25.84-41.19-44.89-85.38-59.41-131.66c-9.77-31.14-17.83-62.74-24.99-94.57c-7.59-33.7-14.02-67.62-18.78-101.84
		c-1.58-11.4-2.85-22.84-4.08-34.28c-1.59-14.78-3.06-29.57-4.49-44.37c-0.85-8.75-1.53-17.51-2.27-26.28
		c-1.17-13.86-2.33-27.72-3.47-41.57c-0.75-9.08-1.46-18.16-2.19-27.25c-0.37-4.62-0.8-9.24-1.1-13.86
		c-0.76-11.64-1.51-23.28-2.17-34.93c-0.13-2.22,0-4.49,0.36-6.68c0.67-4.06,2.97-7.09,6.81-8.64c2.2-0.89,4.55-1.49,6.89-1.92
		c2.82-0.52,5.72-0.6,8.56-1.09c2.66-0.46,5.38-0.93,7.9-1.86c47.87-17.61,96.69-32.29,145.4-47.3
		c45.35-13.98,90.63-28.2,135.9-42.43c39.48-12.41,78.92-24.98,118.37-37.47c0.15-0.05,0.31-0.09,0.45-0.16
		c3.87-1.66,7.63-1.43,11.64-0.1c13.81,4.56,27.69,8.89,41.56,13.26c87.49,27.53,175,55,262.47,82.59
		c35.96,11.34,71.85,22.93,107.76,34.45c4.87,1.56,9.65,3.4,14.52,4.93c2.71,0.86,3.9,2.57,3.9,5.3c0,1.44,0.07,2.88-0.01,4.31
		C1397,267.46,1396.09,283.26,1395.35,295.98z M572.98,338.16c0.01,0,0.02,0,0.03,0c0.03,0.32,0.06,0.64,0.07,0.96
		c0.51,16.62,2.43,33.17,2.32,49.82c-0.01,1.11,0.19,2.23,0.32,3.34c0.43,3.49,0.92,6.97,1.31,10.47c2.6,22.87,5.2,45.75,7.78,68.63
		c2.3,20.35,5.39,40.57,9.33,60.67c6.49,33.12,14.45,65.91,22.71,98.62c5.02,19.86,11.06,39.42,18.91,58.37
		c10.22,24.68,21.62,48.83,33.69,72.66c3.9,7.71,8.32,15.13,13.19,22.28c15.4,22.58,33.48,42.73,53.91,60.9
		c23.44,20.85,49.53,37.18,78.84,48.43c24.98,9.59,50.47,17.41,76.66,22.93c20.02,4.22,40.06,8.37,60.09,12.58
		c6.19,1.3,12.41,1.42,18.59,0.31c5.66-1.02,11.27-2.31,16.85-3.7c7.3-1.82,14.6-3.55,22.07-4.49c2.38-0.3,4.74-0.75,7.1-1.17
		c29.04-5.17,57.36-13.02,85.11-22.94c30.12-10.76,57.43-26.51,81.96-47.02c27.51-23,49.9-50.38,68.58-80.86
		c12-19.57,21.07-40.57,29.12-62c8.6-22.91,16.29-46.13,23.37-69.56c6.06-20.05,12.04-40.13,16.78-60.54
		c4.45-19.16,7.93-38.52,11.37-57.88c4.06-22.83,7.52-45.76,9.91-68.82c1.63-15.74,2.72-31.54,3.79-47.33
		c1.42-20.89,2.47-41.81,3.91-62.71c1.04-14.99,2.47-29.95,3.72-44.92c0.28-3.36,0.41-6.69-0.55-10c-1.03-3.58-3.08-6.35-6.42-7.96
		c-2.15-1.03-4.45-1.76-6.73-2.48c-4.57-1.45-9.16-2.79-13.74-4.18c-3.36-1.02-6.7-2.15-10.09-3.08
		c-10.02-2.75-20.16-5.09-30.06-8.21c-16.46-5.17-32.8-10.75-49.15-16.29c-20.44-6.92-40.8-14.08-61.77-19.25
		c-18.02-4.44-35.72-9.92-53.2-16.14c-27.11-9.65-54.42-18.68-82.01-26.86c-16.7-4.95-33.39-9.93-49.65-16.24
		c-4.16-1.61-8.5-2.8-12.83-3.92c-7.84-2.04-15.74-2.21-23.76-0.81c-12.01,2.11-23.68,5.4-35.16,9.41
		c-12.98,4.53-25.78,9.55-38.83,13.88c-18.5,6.14-37.12,11.93-55.74,17.73c-59.36,18.49-118.86,36.49-178.55,53.89
		c-17.49,5.1-34.98,10.19-52.17,16.3c-3.75,1.33-7.66,2.22-11.48,3.35c-1.99,0.59-4.02,1.1-5.91,1.91
		c-3.83,1.65-6.04,4.63-6.48,8.81c-0.13,1.26-0.15,2.55-0.07,3.82c0.51,9.26,1.04,18.52,1.6,27.77
		C572.07,323.8,572.53,330.98,572.98,338.16z"/>
	<path class="st0" d="M572.98,338.16c-0.45-7.18-0.91-14.36-1.34-21.54c-0.55-9.26-1.08-18.51-1.6-27.77
		c-0.07-1.27-0.06-2.56,0.07-3.82c0.44-4.18,2.65-7.16,6.48-8.81c1.89-0.82,3.93-1.33,5.91-1.91c3.83-1.13,7.73-2.02,11.48-3.35
		c17.18-6.1,34.67-11.2,52.17-16.3c59.69-17.4,119.19-35.4,178.55-53.89c18.61-5.8,37.24-11.58,55.74-17.73
		c13.04-4.33,25.85-9.35,38.83-13.88c11.48-4.01,23.15-7.3,35.16-9.41c8.02-1.41,15.92-1.24,23.76,0.81
		c4.32,1.13,8.67,2.31,12.83,3.92c16.26,6.31,32.95,11.28,49.65,16.24c27.59,8.18,54.9,17.21,82.01,26.86
		c17.48,6.22,35.18,11.7,53.2,16.14c20.98,5.17,41.34,12.33,61.77,19.25c16.35,5.53,32.69,11.11,49.15,16.29
		c9.9,3.11,20.04,5.45,30.06,8.21c3.39,0.93,6.72,2.06,10.09,3.08c4.58,1.4,9.18,2.74,13.74,4.18c2.28,0.72,4.58,1.45,6.73,2.48
		c3.34,1.61,5.39,4.38,6.42,7.96c0.95,3.3,0.83,6.64,0.55,10c-1.26,14.97-2.69,29.93-3.72,44.92c-1.45,20.89-2.49,41.81-3.91,62.71
		c-1.07,15.79-2.16,31.59-3.79,47.33c-2.39,23.06-5.85,45.99-9.91,68.82c-3.44,19.36-6.92,38.72-11.37,57.88
		c-4.75,20.41-10.73,40.49-16.78,60.54c-7.07,23.43-14.76,46.65-23.37,69.56c-8.05,21.44-17.12,42.43-29.12,62
		c-18.68,30.48-41.08,57.87-68.58,80.86c-24.53,20.51-51.84,36.26-81.96,47.02c-27.75,9.92-56.08,17.77-85.11,22.94
		c-2.36,0.42-4.72,0.87-7.1,1.17c-7.47,0.94-14.78,2.67-22.07,4.49c-5.58,1.39-11.2,2.69-16.85,3.7c-6.18,1.11-12.4,0.99-18.59-0.31
		c-20.02-4.21-40.06-8.36-60.09-12.58c-26.19-5.52-51.68-13.34-76.66-22.93c-29.31-11.25-55.41-27.58-78.84-48.43
		c-20.42-18.17-38.51-38.33-53.91-60.9c-4.87-7.14-9.29-14.57-13.19-22.28c-12.07-23.83-23.46-47.98-33.69-72.66
		c-7.85-18.95-13.89-38.51-18.91-58.37c-8.27-32.71-16.22-65.5-22.71-98.62c-3.94-20.1-7.03-40.32-9.33-60.67
		c-2.58-22.88-5.18-45.75-7.78-68.63c-0.4-3.49-0.88-6.98-1.31-10.47c-0.14-1.11-0.33-2.23-0.32-3.34
		c0.1-16.65-1.82-33.2-2.32-49.82c-0.01-0.32-0.05-0.64-0.07-0.96C572.99,338.16,572.99,338.16,572.98,338.16z M830.17,242.11
		c-3.96,0.33-3.97,2.61-3.74,5.26c0.69,7.96,1.21,15.94,1.81,23.9c0.85,11.32,1.72,22.63,2.58,33.95
		c0.75,9.88,1.48,19.77,2.23,29.65c0.85,11.16,1.74,22.31,2.57,33.47c0.75,10.04,1.42,20.09,2.16,30.13
		c0.83,11.16,1.71,22.32,2.57,33.47c0.81,10.52,1.63,21.04,2.44,31.56c0.43,5.58,0.87,11.16,1.24,16.74
		c0.07,1.01,0.51,2.28-1.03,2.96c-1.52-1.01-2.16-2.7-3.03-4.18c-21.18-35.77-42.36-71.54-63.52-107.32
		c-15.95-26.98-31.86-53.97-47.8-80.95c-0.89-1.51-1.84-3-2.82-4.45c-0.25-0.36-0.74-0.56-1.07-0.8c-1.15,0.23-2.21,0.44-3.12,0.62
		c-1.05-1.11-1.9-2-2.79-2.94c-1.89,0.61-3.56,1.13-5.21,1.7c-16.03,5.49-32.05,10.99-48.07,16.49
		c-18.75,6.43-37.5,12.84-56.23,19.31c-1.93,0.66-4.05,0.99-5.97,2.97c2.06,2.7-0.91,4.26-2.05,6.5c0.93,1.45,1.76,2.8,2.66,4.11
		c21.57,31.35,43.13,62.7,64.71,94.04c66.74,96.92,133.49,193.83,200.25,290.74c29.12,42.27,58.27,84.5,87.41,126.75
		c0.73,1.05,1.44,2.12,2.25,3.1c0.39,0.47,1.04,1.15,1.48,1.08c2.16-0.32,3.98,0.01,5.56,1.67c0.31,0.33,1.24,0.23,1.84,0.1
		c1.09-0.23,2.16-0.59,3.21-0.95c35.77-12.5,71.53-25,107.3-37.51c1.05-0.37,2.14-0.72,3.08-1.31c0.61-0.38,1.36-1.17,1.36-1.77
		c0.01-1.78,0.56-2.99,2.19-3.86c0.56-0.3,0.89-1.29,1.05-2.02c0.21-0.92,0.18-1.9,0.2-2.86c0.22-13.91,0.45-27.82,0.63-41.72
		c0.45-34.37,0.9-68.75,1.31-103.12c0.33-27.66,0.59-55.32,0.89-82.98c0.04-4,0.13-7.99,0.24-11.99c0.02-0.74,0.05-1.65,1.48-1.59
		c0.45,1.24,0.99,2.54,1.4,3.89c2.26,7.5,4.47,15.01,6.74,22.51c8.29,27.39,16.58,54.78,24.91,82.16
		c10.28,33.81,20.59,67.6,30.91,101.39c0.55,1.81,0.86,3.75,2.38,5.46c2.67-0.64,4.52,1.15,6.45,2.98c1.6-0.66,3.08-1.23,4.52-1.89
		c29.36-13.44,58.72-26.9,88.08-40.36c1.6-0.73,3.16-1.53,4.73-2.34c0.42-0.21,0.78-0.55,1.08-0.77c0-1.36,0-2.45,0-3.7
		c2.09-0.75,2.98-2.28,2.9-4.45c-0.05-1.28,0.06-2.56,0.08-3.84c0.09-8.15,0.18-16.3,0.24-24.46c0.32-38.37,0.67-76.74,0.95-115.12
		c0.14-19.51,0.13-39.01,0.27-58.52c0.16-20.94,0.44-41.89,0.62-62.83c0.38-45.09,0.72-90.18,1.07-135.26
		c0.05-6.88,0.03-13.75,0.12-20.63c0.03-2.17-0.59-3.73-2.81-4.39c-0.24-0.07-0.37-0.48-0.65-0.85c0-0.97,0-2.06,0-3.08
		c-1.39-1.45-3.17-1.74-4.81-2.31c-21.14-7.33-42.28-14.65-63.43-21.96c-11.63-4.02-23.26-8.05-34.91-12.01
		c-1.75-0.59-3.47-1.78-5.99-0.79c-0.07,2.71-2.91,2.98-5,4.44c-0.06,1.87-0.18,3.77-0.19,5.68c-0.04,10.07-0.05,20.15-0.06,30.22
		c-0.04,49.25-0.08,98.49-0.12,147.74c0,1.6-0.03,3.2-0.12,4.79c-0.04,0.62-0.27,1.25-1.42,1.06c-0.42-1.37-0.94-2.86-1.33-4.37
		c-10.26-39.45-20.5-78.91-30.75-118.36c-7.68-29.55-15.35-59.1-23.04-88.65c-0.52-1.99-1.2-3.93-1.73-5.68
		c-1.4-0.4-2.41-0.69-3.61-1.03c0.79-2.28,0.07-3.61-1.91-4.38c-1.34-0.52-2.6-1.23-3.91-1.83c-24.5-11.37-49.01-22.74-73.51-34.11
		c-12.9-5.99-25.8-12-38.71-17.96c-1.71-0.79-3.32-1.96-5.28-1.81c-0.83,0.62-1.58,1.17-2.38,1.77c-0.98-0.68-1.86-1.3-2.89-2.01
		c-1.78,0.82-3.53,1.57-5.25,2.41c-34.89,17.08-69.77,34.16-104.65,51.24c-5.89,2.88-11.74,5.83-17.67,8.63
		C829.67,237.67,828.87,239.04,830.17,242.11z"/>
	<path d="M830.17,242.11c-1.3-3.06-0.5-4.43,1.62-5.43c5.92-2.8,11.78-5.74,17.67-8.63c34.88-17.08,69.77-34.17,104.65-51.24
		c1.71-0.84,3.46-1.59,5.25-2.41c1.03,0.71,1.91,1.33,2.89,2.01c0.8-0.6,1.55-1.15,2.38-1.77c1.96-0.15,3.57,1.02,5.28,1.81
		c12.91,5.97,25.81,11.98,38.71,17.96c24.5,11.37,49.01,22.74,73.51,34.11c1.3,0.61,2.57,1.31,3.91,1.83
		c1.98,0.77,2.7,2.11,1.91,4.38c1.2,0.34,2.21,0.63,3.61,1.03c0.54,1.75,1.22,3.7,1.73,5.68c7.69,29.55,15.36,59.1,23.04,88.65
		c10.25,39.45,20.49,78.91,30.75,118.36c0.39,1.52,0.91,3,1.33,4.37c1.16,0.19,1.38-0.45,1.42-1.06c0.09-1.59,0.12-3.19,0.12-4.79
		c0.04-49.25,0.08-98.49,0.12-147.74c0.01-10.07,0.02-20.15,0.06-30.22c0.01-1.9,0.12-3.8,0.19-5.68c2.09-1.46,4.92-1.73,5-4.44
		c2.52-0.99,4.24,0.2,5.99,0.79c11.65,3.96,23.28,7.99,34.91,12.01c21.15,7.31,42.29,14.63,63.43,21.96
		c1.63,0.57,3.42,0.86,4.81,2.31c0,1.02,0,2.11,0,3.08c0.27,0.38,0.41,0.78,0.65,0.85c2.22,0.66,2.84,2.22,2.81,4.39
		c-0.09,6.87-0.07,13.75-0.12,20.63c-0.35,45.09-0.69,90.18-1.07,135.26c-0.18,20.94-0.46,41.89-0.62,62.83
		c-0.14,19.51-0.13,39.01-0.27,58.52c-0.28,38.37-0.63,76.75-0.95,115.12c-0.07,8.15-0.16,16.3-0.24,24.46
		c-0.01,1.28-0.12,2.56-0.08,3.84c0.08,2.17-0.81,3.7-2.9,4.45c0,1.25,0,2.34,0,3.7c-0.31,0.22-0.67,0.55-1.08,0.77
		c-1.56,0.8-3.13,1.6-4.73,2.34c-29.35,13.46-58.71,26.91-88.08,40.36c-1.44,0.66-2.92,1.22-4.52,1.89
		c-1.93-1.83-3.78-3.61-6.45-2.98c-1.52-1.71-1.83-3.65-2.38-5.46c-10.32-33.79-20.63-67.59-30.91-101.39
		c-8.33-27.38-16.62-54.77-24.91-82.16c-2.27-7.5-4.48-15.01-6.74-22.51c-0.41-1.34-0.95-2.65-1.4-3.89
		c-1.43-0.05-1.46,0.85-1.48,1.59c-0.11,3.99-0.2,7.99-0.24,11.99c-0.3,27.66-0.56,55.32-0.89,82.98
		c-0.41,34.37-0.86,68.75-1.31,103.12c-0.18,13.91-0.41,27.82-0.63,41.72c-0.01,0.96,0.01,1.94-0.2,2.86
		c-0.17,0.73-0.49,1.72-1.05,2.02c-1.63,0.87-2.18,2.08-2.19,3.86c0,0.61-0.75,1.39-1.36,1.77c-0.93,0.58-2.02,0.94-3.08,1.31
		c-35.76,12.51-71.53,25.02-107.3,37.51c-1.06,0.37-2.12,0.73-3.21,0.95c-0.6,0.13-1.52,0.23-1.84-0.1
		c-1.57-1.66-3.4-1.99-5.56-1.67c-0.44,0.07-1.09-0.61-1.48-1.08c-0.81-0.99-1.53-2.05-2.25-3.1
		c-29.14-42.25-58.3-84.49-87.41-126.75c-66.76-96.91-133.51-193.82-200.25-290.74c-21.58-31.34-43.15-62.69-64.71-94.04
		c-0.9-1.31-1.72-2.66-2.66-4.11c1.14-2.24,4.1-3.8,2.05-6.5c1.92-1.98,4.04-2.31,5.97-2.97c18.73-6.46,37.49-12.88,56.23-19.31
		c16.02-5.5,32.05-11,48.07-16.49c1.65-0.57,3.32-1.08,5.21-1.7c0.89,0.94,1.74,1.83,2.79,2.94c0.9-0.18,1.97-0.39,3.12-0.62
		c0.33,0.24,0.83,0.44,1.07,0.8c0.98,1.46,1.92,2.94,2.82,4.45c15.94,26.98,31.85,53.98,47.8,80.95
		c21.15,35.78,42.33,71.55,63.52,107.32c0.88,1.48,1.51,3.17,3.03,4.18c1.54-0.68,1.09-1.95,1.03-2.96
		c-0.37-5.58-0.81-11.16-1.24-16.74c-0.81-10.52-1.63-21.04-2.44-31.56c-0.86-11.16-1.74-22.31-2.57-33.47
		c-0.75-10.04-1.42-20.09-2.16-30.13c-0.83-11.16-1.72-22.31-2.57-33.47c-0.75-9.88-1.48-19.77-2.23-29.65
		c-0.86-11.32-1.73-22.63-2.58-33.95c-0.6-7.97-1.12-15.94-1.81-23.9C826.2,244.71,826.22,242.43,830.17,242.11z M1158.59,268.57
		c-0.08,1.93-0.21,3.65-0.22,5.38c-0.08,25.9-0.17,51.8-0.22,77.7c-0.06,31.66-0.07,63.31-0.11,94.97
		c-0.02,12.31-0.04,24.62-0.1,36.93c-0.01,2.04,0.33,4.17-0.99,6.17c-2.2,0.69-4.46,1.3-7.21,0.84c-0.5-1.64-1.07-3.28-1.5-4.95
		c-7.94-30.46-15.86-60.92-23.78-91.39c-12.98-49.95-25.96-99.9-38.94-149.86c-1.71-6.6-1.19-5.62-6.79-8.23
		c-32.3-15.05-64.62-30.05-96.94-45.07c-4.06-1.88-8.11-3.78-12.21-5.58c-0.76-0.33-1.72-0.23-2.92-0.36
		c-0.06,2.1-0.16,3.84-0.16,5.57c0.31,137.82,0.65,275.64,0.93,413.46c0.14,70.19,0.18,140.38,0.26,210.57
		c0.01,7.19,0,14.39,0.06,21.58c0.01,1.72-0.36,3.53,0.72,5.15c1.84,0.9,3.43-0.2,5.02-0.75c33.04-11.51,66.07-23.05,99.1-34.6
		c4.75-1.66,4.75-1.71,4.83-6.84c0.2-12.47,0.41-24.94,0.57-37.41c0.23-18.87,0.37-37.73,0.64-56.6
		c0.48-32.61,1.06-65.22,1.55-97.83c0.37-24.46,0.67-48.92,1.03-73.38c0.02-1.39-0.33-2.9,0.89-4.33c2.24-0.76,4.72-0.97,7.56-0.84
		c0.61,1.89,1.23,3.69,1.78,5.5c21.39,70.16,42.78,140.32,64.16,210.48c2,6.57,3.96,13.16,6.02,19.71c0.46,1.45,0.51,3.24,2.51,4.05
		c1.04-0.39,2.26-0.77,3.4-1.29c28.19-12.91,56.37-25.83,84.54-38.77c1.28-0.59,2.49-1.35,3.76-2.04c0.12-1.65,0.29-3.08,0.31-4.5
		c1.17-139.25,2.32-278.5,3.46-417.76c0-0.45-0.25-0.91-0.38-1.36c-1.57-1.58-3.69-1.92-5.62-2.59
		c-10.71-3.74-21.44-7.39-32.17-11.09c-18.72-6.46-37.44-12.94-56.18-19.37C1163.35,269.2,1161.49,268.08,1158.59,268.57z
		 M611.46,329.6c0.38,2.04,1.75,3.46,2.82,5.02c28.12,40.8,56.25,81.6,84.39,122.39c85.22,123.57,170.43,247.13,255.66,370.69
		c1,1.45,2,2.9,3.08,4.28c0.34,0.44,0.95,0.68,1.71,1.2c0.86-2.13,0.69-4.05,0.68-5.92c-0.05-12.95-0.16-25.9-0.19-38.85
		c-0.31-137.01-0.63-274.03-0.91-411.04c-0.11-51.64-0.13-103.28-0.2-154.92c-0.01-10.87-0.03-21.74-0.08-32.61
		c-0.01-1.54,0.37-3.2-0.85-4.72c-2.19-0.31-3.87,1.14-5.67,2.01c-34.17,16.69-68.32,33.43-102.47,50.16
		c-4.02,1.97-7.99,4.04-12.05,5.9c-2.26,1.04-2.92,2.58-2.68,4.96c0.55,5.56,0.95,11.15,1.36,16.72
		c0.78,10.52,1.47,21.04,2.28,31.56c1.1,14.34,2.32,28.67,3.42,43.01c1.12,14.66,2.14,29.33,3.22,43.99
		c0.36,4.94,0.76,9.88,1.15,14.82c0.82,10.35,1.67,20.71,2.45,31.06c0.79,10.36,1.49,20.72,2.28,31.08
		c1.04,13.54,2.15,27.08,3.16,40.63c0.08,1.02-0.34,2.08-0.49,2.93c-2.47,0.82-4.57,1.51-6.61,2.19c-1.92-1.35-2.67-3.36-3.71-5.12
		c-12.05-20.36-24.07-40.73-36.09-61.11c-28.11-47.63-56.22-95.25-84.35-142.88c-0.96-1.63-2.02-3.2-2.84-4.48
		c-2.53-0.65-4.26,0.43-6.03,1.03c-21.47,7.32-42.91,14.7-64.36,22.07c-11.03,3.79-22.07,7.55-33.07,11.39
		C614.71,327.66,612.66,327.84,611.46,329.6z"/>
	<path class="st0" d="M1158.59,268.57c2.89-0.49,4.75,0.63,6.68,1.29c18.74,6.42,37.45,12.91,56.18,19.37
		c10.72,3.7,21.46,7.35,32.17,11.09c1.93,0.67,4.05,1.01,5.62,2.59c0.13,0.45,0.38,0.9,0.38,1.36
		c-1.14,139.25-2.29,278.5-3.46,417.76c-0.01,1.43-0.19,2.85-0.31,4.5c-1.27,0.7-2.48,1.45-3.76,2.04
		c-28.17,12.94-56.35,25.86-84.54,38.77c-1.14,0.52-2.36,0.9-3.4,1.29c-2-0.81-2.06-2.61-2.51-4.05
		c-2.07-6.55-4.02-13.14-6.02-19.71c-21.39-70.16-42.77-140.32-64.16-210.48c-0.55-1.81-1.17-3.6-1.78-5.5
		c-2.84-0.14-5.32,0.08-7.56,0.84c-1.22,1.43-0.87,2.93-0.89,4.33c-0.36,24.46-0.66,48.92-1.03,73.38
		c-0.5,32.61-1.07,65.22-1.55,97.83c-0.28,18.86-0.41,37.73-0.64,56.6c-0.15,12.47-0.37,24.94-0.57,37.41
		c-0.08,5.14-0.08,5.18-4.83,6.84c-33.03,11.55-66.06,23.09-99.1,34.6c-1.59,0.56-3.18,1.65-5.02,0.75
		c-1.08-1.62-0.71-3.43-0.72-5.15c-0.06-7.19-0.05-14.39-0.06-21.58c-0.08-70.19-0.12-140.38-0.26-210.57
		c-0.28-137.82-0.62-275.64-0.93-413.46c0-1.73,0.1-3.46,0.16-5.57c1.21,0.14,2.16,0.03,2.92,0.36c4.1,1.8,8.15,3.69,12.21,5.58
		c32.32,15.01,64.64,30.01,96.94,45.07c5.59,2.61,5.07,1.63,6.79,8.23c12.97,49.95,25.95,99.91,38.94,149.86
		c7.92,30.47,15.85,60.93,23.78,91.39c0.44,1.67,1,3.31,1.5,4.95c2.75,0.46,5.01-0.15,7.21-0.84c1.31-2,0.98-4.13,0.99-6.17
		c0.06-12.31,0.09-24.62,0.1-36.93c0.04-31.66,0.06-63.31,0.11-94.97c0.05-25.9,0.13-51.8,0.22-77.7
		C1158.38,272.23,1158.51,270.5,1158.59,268.57z"/>
	<path class="st0" d="M611.46,329.6c1.2-1.76,3.25-1.94,4.99-2.55c11.01-3.84,22.05-7.6,33.07-11.39
		c21.45-7.37,42.9-14.75,64.36-22.07c1.77-0.6,3.5-1.68,6.03-1.03c0.82,1.29,1.88,2.85,2.84,4.48
		c28.12,47.62,56.23,95.25,84.35,142.88c12.03,20.37,24.05,40.75,36.09,61.11c1.04,1.76,1.79,3.77,3.71,5.12
		c2.04-0.68,4.14-1.37,6.61-2.19c0.15-0.86,0.57-1.91,0.49-2.93c-1.02-13.55-2.12-27.08-3.16-40.63
		c-0.79-10.36-1.49-20.72-2.28-31.08c-0.79-10.36-1.64-20.71-2.45-31.06c-0.39-4.94-0.79-9.88-1.15-14.82
		c-1.08-14.66-2.1-29.33-3.22-43.99c-1.09-14.34-2.31-28.67-3.42-43.01c-0.81-10.52-1.51-21.04-2.28-31.56
		c-0.41-5.58-0.81-11.16-1.36-16.72c-0.24-2.38,0.42-3.93,2.68-4.96c4.07-1.86,8.04-3.93,12.05-5.9
		c34.15-16.73,68.3-33.47,102.47-50.16c1.79-0.88,3.48-2.32,5.67-2.01c1.22,1.53,0.84,3.18,0.85,4.72
		c0.06,10.87,0.07,21.74,0.08,32.61c0.07,51.64,0.09,103.28,0.2,154.92c0.28,137.01,0.6,274.03,0.91,411.04
		c0.03,12.95,0.14,25.9,0.19,38.85c0.01,1.87,0.17,3.79-0.68,5.92c-0.76-0.52-1.36-0.76-1.71-1.2c-1.08-1.39-2.08-2.84-3.08-4.28
		C869.1,704.15,783.88,580.58,698.67,457.02c-28.13-40.79-56.27-81.59-84.39-122.39C613.21,333.07,611.84,331.65,611.46,329.6z"/>
</g>
</svg>
