<?xml version="1.0" encoding="utf-8"?>
<!-- Generator: Adobe Illustrator 25.0.0, SVG Export Plug-In . SVG Version: 6.00 Build 0)  -->
<svg version="1.1" id="Layer_1" xmlns="http://www.w3.org/2000/svg" xmlns:xlink="http://www.w3.org/1999/xlink" x="0px" y="0px"
	 viewBox="0 0 1920 1080" style="enable-background:new 0 0 1920 1080;" xml:space="preserve">
<style type="text/css">
	.st0{fill:#FFFFFF;}
</style>
<g>
	<path class="st0" d="M11.8-408.2c632.1,0,1264.3,0,1896.6,0c0,632.1,0,1264.2,0,1896.6c-632.1,0-1264.4,0-1896.6,0
		C11.8,856.3,11.8,224.1,11.8-408.2z M1765.8,88.2c1.4-23.5,3-52.8,4.7-82c0.1-2.6,0-5.3,0-8c0-5-2.2-8.2-7.2-9.8
		c-9-2.9-17.9-6.2-26.9-9.1c-66.5-21.3-132.9-42.8-199.5-63.8C1375-135.6,1213-186.5,1051.1-237.4c-25.7-8.1-51.4-16.1-76.9-24.5
		c-7.4-2.4-14.4-2.9-21.5,0.2c-0.3,0.1-0.6,0.2-0.8,0.3c-73,23.1-146,46.4-219.1,69.4c-83.8,26.3-167.6,52.7-251.6,78.5
		c-90.2,27.8-180.5,55-269.2,87.6c-4.7,1.7-9.7,2.6-14.6,3.4c-5.2,0.9-10.6,1.1-15.8,2c-4.3,0.8-8.7,1.9-12.8,3.6
		c-7.1,2.9-11.4,8.5-12.6,16c-0.7,4.1-0.9,8.3-0.7,12.4c1.2,21.6,2.6,43.1,4,64.7c0.6,8.6,1.4,17.1,2,25.7
		c1.4,16.8,2.7,33.6,4.1,50.4c2.1,25.7,4.3,51.3,6.4,77c1.4,16.2,2.6,32.5,4.2,48.6c2.6,27.4,5.3,54.8,8.3,82.1
		c2.3,21.2,4.6,42.4,7.6,63.5c8.8,63.3,20.7,126.1,34.8,188.5c13.3,58.9,28.2,117.4,46.3,175.1c26.9,85.7,62.1,167.5,110,243.7
		c34.3,54.7,75.2,103.1,127.2,141.9c36.7,27.4,75.7,50.6,118.7,67c18.8,7.2,38.1,12.8,57.5,18.2c37.7,10.5,75.8,18.8,114.1,26.5
		c31.3,6.3,62.6,12.7,94,18.7c29,5.5,58.2,6.5,87.5,4.1c26.3-2.2,52.3-6.1,78.2-11.1c31.4-6,62.7-12.3,94.1-18.1
		c38.2-7.1,75.7-16.5,112.5-29.1c34.5-11.8,68.1-25.7,100-43.6c46.2-26,85.7-60.1,120.4-99.8c35.8-41,65.4-86.3,91.2-134
		c25.5-47,45.2-96.4,61.7-147.2c15.7-48.4,29-97.6,41.9-146.8c18.8-71.3,33.5-143.5,44.8-216.4c8.6-55.3,16-110.7,23.1-166.2
		c5.8-46.1,9.3-92.4,12.3-138.8C1763.6,135.3,1764.4,114.6,1765.8,88.2z"/>
	<path d="M1765.8,88.2c-1.4,26.4-2.2,47.1-3.6,67.8c-2.9,46.4-6.4,92.7-12.3,138.8c-7,55.5-14.5,110.9-23.1,166.2
		c-11.3,72.9-26,145-44.8,216.4c-13,49.2-26.2,98.4-41.9,146.8c-16.5,50.8-36.2,100.2-61.7,147.2c-25.9,47.8-55.4,93.1-91.2,134
		c-34.7,39.8-74.2,73.8-120.4,99.8c-31.8,17.9-65.5,31.7-100,43.6c-36.7,12.6-74.3,22.1-112.5,29.1c-31.4,5.8-62.8,12.1-94.1,18.1
		c-25.9,4.9-51.9,8.9-78.2,11.1c-29.3,2.4-58.6,1.5-87.5-4.1c-31.4-6-62.7-12.3-94-18.7c-38.3-7.8-76.5-16-114.1-26.5
		c-19.4-5.4-38.7-11-57.5-18.2c-42.9-16.4-81.9-39.6-118.7-67c-52-38.8-92.9-87.3-127.2-141.9c-47.8-76.2-83.1-158.1-110-243.7
		c-18.1-57.6-33-116.1-46.3-175.1c-14.1-62.4-26-125.2-34.8-188.5c-2.9-21.1-5.3-42.3-7.6-63.5c-2.9-27.4-5.7-54.7-8.3-82.1
		c-1.6-16.2-2.8-32.4-4.2-48.6c-2.2-25.7-4.3-51.3-6.4-77c-1.4-16.8-2.7-33.6-4.1-50.4c-0.7-8.6-1.5-17.1-2-25.7
		c-1.4-21.5-2.8-43.1-4-64.7c-0.2-4.1,0-8.3,0.7-12.4c1.2-7.5,5.5-13.1,12.6-16c4.1-1.6,8.4-2.8,12.8-3.6c5.2-1,10.6-1.1,15.8-2
		c4.9-0.9,10-1.7,14.6-3.4c88.6-32.6,179-59.8,269.2-87.6c83.9-25.9,167.8-52.2,251.6-78.5c73.1-23,146.1-46.2,219.1-69.4
		c0.3-0.1,0.6-0.2,0.8-0.3c7.2-3.1,14.1-2.6,21.5-0.2c25.6,8.4,51.3,16.5,76.9,24.5c162,51,324,101.8,485.9,152.9
		c66.6,21,133,42.4,199.5,63.8c9,2.9,17.9,6.3,26.9,9.1c5,1.6,7.2,4.8,7.2,9.8c0,2.7,0.1,5.3,0,8
		C1768.8,35.4,1767.2,64.6,1765.8,88.2z M243.5,166.3C243.5,166.3,243.5,166.3,243.5,166.3c0.1,0.6,0.2,1.2,0.2,1.8
		c0.9,30.8,4.5,61.4,4.3,92.2c0,2.1,0.4,4.1,0.6,6.2c0.8,6.5,1.7,12.9,2.4,19.4c4.8,42.3,9.6,84.7,14.4,127
		c4.3,37.7,10,75.1,17.3,112.3c12,61.3,26.7,122,42,182.6c9.3,36.8,20.5,73,35,108.1c18.9,45.7,40,90.4,62.4,134.5
		c7.2,14.3,15.4,28,24.4,41.2c28.5,41.8,62,79.1,99.8,112.7c43.4,38.6,91.7,68.8,145.9,89.7c46.2,17.8,93.4,32.2,141.9,42.4
		c37.1,7.8,74.2,15.5,111.2,23.3c11.5,2.4,23,2.6,34.4,0.6c10.5-1.9,20.9-4.3,31.2-6.8c13.5-3.4,27-6.6,40.9-8.3
		c4.4-0.6,8.8-1.4,13.1-2.2c53.8-9.6,106.2-24.1,157.6-42.5c55.8-19.9,106.3-49.1,151.7-87c50.9-42.6,92.4-93.3,127-149.7
		c22.2-36.2,39-75.1,53.9-114.8c15.9-42.4,30.2-85.4,43.3-128.8c11.2-37.1,22.3-74.3,31.1-112.1c8.2-35.5,14.7-71.3,21-107.1
		c7.5-42.3,13.9-84.7,18.3-127.4c3-29.1,5-58.4,7-87.6c2.6-38.7,4.6-77.4,7.2-116.1c1.9-27.7,4.6-55.4,6.9-83.2
		c0.5-6.2,0.8-12.4-1-18.5c-1.9-6.6-5.7-11.8-11.9-14.7c-4-1.9-8.2-3.3-12.5-4.6c-8.5-2.7-17-5.2-25.4-7.7c-6.2-1.9-12.4-4-18.7-5.7
		c-18.5-5.1-37.3-9.4-55.6-15.2c-30.5-9.6-60.7-19.9-91-30.2c-37.8-12.8-75.5-26.1-114.3-35.6c-33.4-8.2-66.1-18.4-98.5-29.9
		c-50.2-17.9-100.7-34.6-151.8-49.7c-30.9-9.2-61.8-18.4-91.9-30.1c-7.7-3-15.7-5.2-23.8-7.3c-14.5-3.8-29.1-4.1-44-1.5
		c-22.2,3.9-43.8,10-65.1,17.4c-24,8.4-47.7,17.7-71.9,25.7c-34.2,11.4-68.7,22.1-103.2,32.8c-109.9,34.2-220,67.5-330.5,99.8
		c-32.4,9.4-64.8,18.9-96.6,30.2c-6.9,2.5-14.2,4.1-21.3,6.2c-3.7,1.1-7.4,2-10.9,3.5c-7.1,3.1-11.2,8.6-12,16.3
		c-0.2,2.3-0.3,4.7-0.1,7.1c0.9,17.1,1.9,34.3,3,51.4C241.8,139.7,242.6,153,243.5,166.3z"/>
	<path class="st0" d="M243.5,166.3c-0.8-13.3-1.7-26.6-2.5-39.9c-1-17.1-2-34.3-3-51.4c-0.1-2.4-0.1-4.7,0.1-7.1
		c0.8-7.7,4.9-13.3,12-16.3c3.5-1.5,7.3-2.5,10.9-3.5c7.1-2.1,14.3-3.7,21.3-6.2c31.8-11.3,64.2-20.7,96.6-30.2
		c110.5-32.2,220.6-65.5,330.5-99.8c34.4-10.7,68.9-21.4,103.2-32.8c24.1-8,47.9-17.3,71.9-25.7c21.3-7.4,42.9-13.5,65.1-17.4
		c14.8-2.6,29.5-2.3,44,1.5c8,2.1,16,4.3,23.8,7.3c30.1,11.7,61,20.9,91.9,30.1c51.1,15.1,101.6,31.9,151.8,49.7
		c32.4,11.5,65.1,21.7,98.5,29.9c38.8,9.6,76.5,22.8,114.3,35.6c30.3,10.2,60.5,20.6,91,30.2c18.3,5.8,37.1,10.1,55.6,15.2
		c6.3,1.7,12.4,3.8,18.7,5.7c8.5,2.6,17,5.1,25.4,7.7c4.2,1.3,8.5,2.7,12.5,4.6c6.2,3,10,8.1,11.9,14.7c1.8,6.1,1.5,12.3,1,18.5
		c-2.3,27.7-5,55.4-6.9,83.2c-2.7,38.7-4.6,77.4-7.2,116.1c-2,29.2-4,58.5-7,87.6c-4.4,42.7-10.8,85.1-18.3,127.4
		c-6.4,35.8-12.8,71.7-21,107.1c-8.8,37.8-19.9,75-31.1,112.1c-13.1,43.4-27.3,86.4-43.3,128.8c-14.9,39.7-31.7,78.5-53.9,114.8
		c-34.6,56.4-76,107.1-127,149.7c-45.4,38-96,67.1-151.7,87c-51.4,18.4-103.8,32.9-157.6,42.5c-4.4,0.8-8.7,1.6-13.1,2.2
		c-13.8,1.7-27.4,4.9-40.9,8.3c-10.3,2.6-20.7,5-31.2,6.8c-11.4,2.1-23,1.8-34.4-0.6c-37.1-7.8-74.2-15.5-111.2-23.3
		c-48.5-10.2-95.7-24.7-141.9-42.4c-54.3-20.8-102.6-51.1-145.9-89.7c-37.8-33.6-71.3-71-99.8-112.7c-9-13.2-17.2-27-24.4-41.2
		c-22.3-44.1-43.4-88.8-62.4-134.5c-14.5-35.1-25.7-71.3-35-108.1c-15.3-60.6-30-121.3-42-182.6c-7.3-37.2-13-74.6-17.3-112.3
		c-4.8-42.4-9.6-84.7-14.4-127c-0.7-6.5-1.6-12.9-2.4-19.4c-0.3-2.1-0.6-4.1-0.6-6.2c0.2-30.8-3.4-61.5-4.3-92.2
		C243.7,167.4,243.6,166.8,243.5,166.3C243.5,166.3,243.5,166.3,243.5,166.3z M719.6-11.5c-7.3,0.6-7.3,4.8-6.9,9.7
		c1.3,14.7,2.2,29.5,3.4,44.2c1.6,21,3.2,41.9,4.8,62.8c1.4,18.3,2.7,36.6,4.1,54.9c1.6,20.7,3.2,41.3,4.8,62
		c1.4,18.6,2.6,37.2,4,55.8c1.5,20.7,3.2,41.3,4.8,62c1.5,19.5,3,38.9,4.5,58.4c0.8,10.3,1.6,20.7,2.3,31c0.1,1.9,0.9,4.2-1.9,5.5
		c-2.8-1.9-4-5-5.6-7.7c-39.2-66.2-78.4-132.4-117.6-198.7c-29.5-49.9-59-99.9-88.5-149.9c-1.6-2.8-3.4-5.6-5.2-8.2
		c-0.5-0.7-1.4-1-2-1.5c-2.1,0.4-4.1,0.8-5.8,1.1c-1.9-2.1-3.5-3.7-5.2-5.4c-3.5,1.1-6.6,2.1-9.6,3.1c-29.7,10.2-59.3,20.3-89,30.5
		c-34.7,11.9-69.4,23.8-104.1,35.7c-3.6,1.2-7.5,1.8-11.1,5.5c3.8,5-1.7,7.9-3.8,12c1.7,2.7,3.3,5.2,4.9,7.6
		c39.9,58,79.8,116.1,119.8,174.1c123.5,179.4,247.1,358.8,370.7,538.2c53.9,78.2,107.9,156.4,161.8,234.6c1.4,1.9,2.7,3.9,4.2,5.7
		c0.7,0.9,1.9,2.1,2.7,2c4-0.6,7.4,0,10.3,3.1c0.6,0.6,2.3,0.4,3.4,0.2c2-0.4,4-1.1,5.9-1.8c66.2-23.1,132.4-46.3,198.6-69.4
		c1.9-0.7,4-1.3,5.7-2.4c1.1-0.7,2.5-2.2,2.5-3.3c0-3.3,1-5.5,4.1-7.1c1-0.6,1.6-2.4,1.9-3.7c0.4-1.7,0.3-3.5,0.4-5.3
		c0.4-25.7,0.8-51.5,1.2-77.2c0.8-63.6,1.7-127.3,2.4-190.9c0.6-51.2,1.1-102.4,1.6-153.6c0.1-7.4,0.2-14.8,0.4-22.2
		c0-1.4,0.1-3.1,2.7-2.9c0.8,2.3,1.8,4.7,2.6,7.2c4.2,13.9,8.3,27.8,12.5,41.7c15.3,50.7,30.7,101.4,46.1,152.1
		c19,62.6,38.1,125.1,57.2,187.7c1,3.4,1.6,6.9,4.4,10.1c4.9-1.2,8.4,2.1,11.9,5.5c3-1.2,5.7-2.3,8.4-3.5
		c54.3-24.9,108.7-49.8,163-74.7c3-1.4,5.8-2.8,8.8-4.3c0.8-0.4,1.4-1,2-1.4c0-2.5,0-4.5,0-6.8c3.9-1.4,5.5-4.2,5.4-8.2
		c-0.1-2.4,0.1-4.7,0.1-7.1c0.2-15.1,0.3-30.2,0.4-45.3c0.6-71,1.2-142.1,1.8-213.1c0.3-36.1,0.2-72.2,0.5-108.3
		c0.3-38.8,0.8-77.5,1.1-116.3c0.7-83.5,1.3-166.9,2-250.4c0.1-12.7,0.1-25.5,0.2-38.2c0.1-4-1.1-6.9-5.2-8.1
		c-0.4-0.1-0.7-0.9-1.2-1.6c0-1.8,0-3.8,0-5.7c-2.6-2.7-5.9-3.2-8.9-4.3c-39.1-13.6-78.3-27.1-117.4-40.7
		c-21.5-7.4-43.1-14.9-64.6-22.2c-3.2-1.1-6.4-3.3-11.1-1.5c-0.1,5-5.4,5.5-9.3,8.2c-0.1,3.5-0.3,7-0.4,10.5
		c-0.1,18.6-0.1,37.3-0.1,55.9c-0.1,91.2-0.1,182.3-0.2,273.5c0,3-0.1,5.9-0.2,8.9c-0.1,1.1-0.5,2.3-2.6,2c-0.8-2.5-1.7-5.3-2.5-8.1
		c-19-73-37.9-146.1-56.9-219.1c-14.2-54.7-28.4-109.4-42.7-164.1c-1-3.7-2.2-7.3-3.2-10.5c-2.6-0.7-4.5-1.3-6.7-1.9
		c1.5-4.2,0.1-6.7-3.5-8.1c-2.5-1-4.8-2.3-7.2-3.4c-45.4-21-90.7-42.1-136.1-63.1c-23.9-11.1-47.8-22.2-71.7-33.2
		c-3.2-1.5-6.1-3.6-9.8-3.4c-1.5,1.1-2.9,2.2-4.4,3.3c-1.8-1.3-3.4-2.4-5.3-3.7c-3.3,1.5-6.5,2.9-9.7,4.5
		c-64.6,31.6-129.2,63.2-193.7,94.9c-10.9,5.3-21.7,10.8-32.7,16C718.6-19.8,717.2-17.2,719.6-11.5z"/>
	<path d="M719.6-11.5c-2.4-5.7-0.9-8.2,3-10.1c11-5.2,21.8-10.6,32.7-16c64.6-31.6,129.2-63.3,193.7-94.9c3.2-1.6,6.4-2.9,9.7-4.5
		c1.9,1.3,3.5,2.5,5.3,3.7c1.5-1.1,2.9-2.1,4.4-3.3c3.6-0.3,6.6,1.9,9.8,3.4c23.9,11.1,47.8,22.2,71.7,33.2
		c45.4,21,90.7,42.1,136.1,63.1c2.4,1.1,4.8,2.4,7.2,3.4c3.7,1.4,5,3.9,3.5,8.1c2.2,0.6,4.1,1.2,6.7,1.9c1,3.2,2.3,6.8,3.2,10.5
		c14.2,54.7,28.4,109.4,42.7,164.1c19,73,37.9,146.1,56.9,219.1c0.7,2.8,1.7,5.6,2.5,8.1c2.1,0.4,2.6-0.8,2.6-2
		c0.2-2.9,0.2-5.9,0.2-8.9c0.1-91.2,0.1-182.3,0.2-273.5c0-18.6,0-37.3,0.1-55.9c0-3.5,0.2-7,0.4-10.5c3.9-2.7,9.1-3.2,9.3-8.2
		c4.7-1.8,7.8,0.4,11.1,1.5c21.6,7.3,43.1,14.8,64.6,22.2c39.2,13.5,78.3,27.1,117.4,40.7c3,1.1,6.3,1.6,8.9,4.3c0,1.9,0,3.9,0,5.7
		c0.5,0.7,0.8,1.4,1.2,1.6c4.1,1.2,5.3,4.1,5.2,8.1c-0.2,12.7-0.1,25.5-0.2,38.2c-0.6,83.5-1.3,166.9-2,250.4
		c-0.3,38.8-0.9,77.5-1.1,116.3c-0.3,36.1-0.2,72.2-0.5,108.3c-0.5,71-1.2,142.1-1.8,213.1c-0.1,15.1-0.3,30.2-0.4,45.3
		c0,2.4-0.2,4.7-0.1,7.1c0.1,4-1.5,6.8-5.4,8.2c0,2.3,0,4.3,0,6.8c-0.6,0.4-1.2,1-2,1.4c-2.9,1.5-5.8,3-8.8,4.3
		c-54.3,24.9-108.7,49.8-163,74.7c-2.7,1.2-5.4,2.3-8.4,3.5c-3.6-3.4-7-6.7-11.9-5.5c-2.8-3.2-3.4-6.8-4.4-10.1
		c-19.1-62.6-38.2-125.1-57.2-187.7c-15.4-50.7-30.8-101.4-46.1-152.1c-4.2-13.9-8.3-27.8-12.5-41.7c-0.8-2.5-1.8-4.9-2.6-7.2
		c-2.6-0.1-2.7,1.6-2.7,2.9c-0.2,7.4-0.4,14.8-0.4,22.2c-0.6,51.2-1,102.4-1.6,153.6c-0.8,63.6-1.6,127.3-2.4,190.9
		c-0.3,25.7-0.8,51.5-1.2,77.2c0,1.8,0,3.6-0.4,5.3c-0.3,1.4-0.9,3.2-1.9,3.7c-3,1.6-4,3.9-4.1,7.1c0,1.1-1.4,2.6-2.5,3.3
		c-1.7,1.1-3.7,1.7-5.7,2.4c-66.2,23.2-132.4,46.3-198.6,69.4c-2,0.7-3.9,1.4-5.9,1.8c-1.1,0.2-2.8,0.4-3.4-0.2
		c-2.9-3.1-6.3-3.7-10.3-3.1c-0.8,0.1-2-1.1-2.7-2c-1.5-1.8-2.8-3.8-4.2-5.7c-53.9-78.2-107.9-156.4-161.8-234.6
		C667.8,691.9,544.3,512.5,420.7,333.1c-39.9-58-79.9-116-119.8-174.1c-1.7-2.4-3.2-4.9-4.9-7.6c2.1-4.1,7.6-7,3.8-12
		c3.6-3.7,7.5-4.3,11.1-5.5c34.7-12,69.4-23.8,104.1-35.7c29.7-10.2,59.3-20.4,89-30.5c3.1-1.1,6.1-2,9.6-3.1
		c1.6,1.7,3.2,3.4,5.2,5.4c1.7-0.3,3.6-0.7,5.8-1.1c0.6,0.4,1.5,0.8,2,1.5c1.8,2.7,3.6,5.4,5.2,8.2c29.5,49.9,59,99.9,88.5,149.9
		c39.2,66.2,78.4,132.4,117.6,198.7c1.6,2.7,2.8,5.9,5.6,7.7c2.9-1.3,2-3.6,1.9-5.5c-0.7-10.3-1.5-20.7-2.3-31
		c-1.5-19.5-3-38.9-4.5-58.4c-1.6-20.7-3.2-41.3-4.8-62c-1.4-18.6-2.6-37.2-4-55.8c-1.5-20.7-3.2-41.3-4.8-62
		c-1.4-18.3-2.7-36.6-4.1-54.9c-1.6-21-3.2-41.9-4.8-62.8c-1.1-14.8-2.1-29.5-3.4-44.2C712.2-6.7,712.3-10.9,719.6-11.5z
		 M1327.5,37.4c-0.1,3.6-0.4,6.8-0.4,10c-0.1,47.9-0.3,95.9-0.4,143.8c-0.1,58.6-0.1,117.2-0.2,175.8c0,22.8-0.1,45.6-0.2,68.4
		c0,3.8,0.6,7.7-1.8,11.4c-4.1,1.3-8.3,2.4-13.3,1.6c-0.9-3-2-6.1-2.8-9.2c-14.7-56.4-29.4-112.8-44-169.2
		c-24-92.5-48.1-184.9-72.1-277.4c-3.2-12.2-2.2-10.4-12.6-15.2c-59.8-27.9-119.6-55.6-179.5-83.4c-7.5-3.5-15-7-22.6-10.3
		c-1.4-0.6-3.2-0.4-5.4-0.7c-0.1,3.9-0.3,7.1-0.3,10.3c0.6,255.1,1.2,510.3,1.7,765.4c0.3,129.9,0.3,259.9,0.5,389.8
		c0,13.3,0,26.6,0.1,39.9c0,3.2-0.7,6.5,1.3,9.5c3.4,1.7,6.3-0.4,9.3-1.4c61.2-21.3,122.3-42.7,183.4-64c8.8-3.1,8.8-3.2,8.9-12.7
		c0.4-23.1,0.8-46.2,1.1-69.3c0.4-34.9,0.7-69.8,1.2-104.8c0.9-60.4,2-120.7,2.9-181.1c0.7-45.3,1.2-90.6,1.9-135.8
		c0-2.6-0.6-5.4,1.6-8c4.1-1.4,8.7-1.8,14-1.6c1.1,3.5,2.3,6.8,3.3,10.2c39.6,129.9,79.2,259.8,118.8,389.6
		c3.7,12.2,7.3,24.4,11.1,36.5c0.9,2.7,0.9,6,4.6,7.5c1.9-0.7,4.2-1.4,6.3-2.4c52.2-23.9,104.3-47.8,156.5-71.8
		c2.4-1.1,4.6-2.5,7-3.8c0.2-3.1,0.5-5.7,0.6-8.3c2.2-257.8,4.3-515.5,6.4-773.3c0-0.8-0.5-1.7-0.7-2.5c-2.9-2.9-6.8-3.6-10.4-4.8
		c-19.8-6.9-39.7-13.7-59.6-20.5c-34.7-12-69.3-24-104-35.9C1336.3,38.6,1332.9,36.5,1327.5,37.4z M314.7,150.4
		c0.7,3.8,3.2,6.4,5.2,9.3C372,235.2,424,310.8,476.1,386.3C633.9,615,791.6,843.7,949.4,1072.5c1.9,2.7,3.7,5.4,5.7,7.9
		c0.6,0.8,1.8,1.3,3.2,2.2c1.6-3.9,1.3-7.5,1.3-11c-0.1-24-0.3-47.9-0.4-71.9c-0.6-253.6-1.2-507.3-1.7-760.9
		c-0.2-95.6-0.2-191.2-0.4-286.8c0-20.1-0.1-40.2-0.1-60.4c0-2.9,0.7-5.9-1.6-8.7c-4.1-0.6-7.2,2.1-10.5,3.7
		c-63.3,30.9-126.5,61.9-189.7,92.9c-7.4,3.6-14.8,7.5-22.3,10.9c-4.2,1.9-5.4,4.8-5,9.2c1,10.3,1.8,20.6,2.5,31
		c1.4,19.5,2.7,38.9,4.2,58.4c2,26.5,4.3,53.1,6.3,79.6c2.1,27.1,4,54.3,6,81.4c0.7,9.1,1.4,18.3,2.1,27.4
		c1.5,19.2,3.1,38.3,4.5,57.5c1.5,19.2,2.8,38.4,4.2,57.5c1.9,25.1,4,50.1,5.8,75.2c0.1,1.9-0.6,3.9-0.9,5.4
		c-4.6,1.5-8.5,2.8-12.2,4.1c-3.6-2.5-4.9-6.2-6.9-9.5c-22.3-37.7-44.6-75.4-66.8-113.1c-52-88.2-104.1-176.3-156.1-264.5
		c-1.8-3-3.7-5.9-5.3-8.3c-4.7-1.2-7.9,0.8-11.2,1.9c-39.7,13.6-79.4,27.2-119.1,40.9c-20.4,7-40.9,14-61.2,21.1
		C320.7,146.8,316.9,147.2,314.7,150.4z"/>
	<path class="st0" d="M1327.5,37.4c5.3-0.9,8.8,1.2,12.4,2.4c34.7,11.9,69.3,23.9,104,35.9c19.8,6.8,39.7,13.6,59.6,20.5
		c3.6,1.2,7.5,1.9,10.4,4.8c0.2,0.8,0.7,1.7,0.7,2.5c-2.1,257.8-4.2,515.5-6.4,773.3c0,2.6-0.4,5.3-0.6,8.3c-2.4,1.3-4.6,2.7-7,3.8
		c-52.1,24-104.3,47.9-156.5,71.8c-2.1,1-4.4,1.7-6.3,2.4c-3.7-1.5-3.8-4.8-4.6-7.5c-3.8-12.1-7.4-24.3-11.1-36.5
		c-39.6-129.9-79.2-259.8-118.8-389.6c-1-3.4-2.2-6.7-3.3-10.2c-5.3-0.3-9.8,0.1-14,1.6c-2.3,2.6-1.6,5.4-1.6,8
		c-0.7,45.3-1.2,90.6-1.9,135.8c-0.9,60.4-2,120.7-2.9,181.1c-0.5,34.9-0.8,69.8-1.2,104.8c-0.3,23.1-0.7,46.2-1.1,69.3
		c-0.1,9.5-0.1,9.6-8.9,12.7c-61.1,21.4-122.3,42.7-183.4,64c-2.9,1-5.9,3.1-9.3,1.4c-2-3-1.3-6.3-1.3-9.5
		c-0.1-13.3-0.1-26.6-0.1-39.9c-0.1-129.9-0.2-259.9-0.5-389.8c-0.5-255.1-1.1-510.3-1.7-765.4c0-3.2,0.2-6.4,0.3-10.3
		c2.2,0.3,4,0.1,5.4,0.7c7.6,3.3,15.1,6.8,22.6,10.3c59.8,27.8,119.7,55.6,179.5,83.4c10.3,4.8,9.4,3,12.6,15.2
		c24,92.5,48,184.9,72.1,277.4c14.7,56.4,29.3,112.8,44,169.2c0.8,3.1,1.9,6.1,2.8,9.2c5.1,0.9,9.3-0.3,13.3-1.6
		c2.4-3.7,1.8-7.6,1.8-11.4c0.1-22.8,0.2-45.6,0.2-68.4c0.1-58.6,0.1-117.2,0.2-175.8c0.1-47.9,0.2-95.9,0.4-143.8
		C1327.1,44.2,1327.4,41,1327.5,37.4z"/>
	<path class="st0" d="M314.7,150.4c2.2-3.3,6-3.6,9.2-4.7c20.4-7.1,40.8-14.1,61.2-21.1c39.7-13.6,79.4-27.3,119.1-40.9
		c3.3-1.1,6.5-3.1,11.2-1.9c1.5,2.4,3.5,5.3,5.3,8.3c52.1,88.2,104.1,176.3,156.1,264.5c22.3,37.7,44.5,75.4,66.8,113.1
		c1.9,3.3,3.3,7,6.9,9.5c3.8-1.3,7.7-2.5,12.2-4.1c0.3-1.6,1.1-3.5,0.9-5.4c-1.9-25.1-3.9-50.1-5.8-75.2
		c-1.5-19.2-2.8-38.4-4.2-57.5c-1.5-19.2-3-38.3-4.5-57.5c-0.7-9.1-1.5-18.3-2.1-27.4c-2-27.1-3.9-54.3-6-81.4
		c-2-26.5-4.3-53.1-6.3-79.6c-1.5-19.5-2.8-38.9-4.2-58.4c-0.8-10.3-1.5-20.7-2.5-31c-0.4-4.4,0.8-7.3,5-9.2
		c7.5-3.4,14.9-7.3,22.3-10.9c63.2-31,126.4-62,189.7-92.9c3.3-1.6,6.4-4.3,10.5-3.7c2.3,2.8,1.6,5.9,1.6,8.7
		c0.1,20.1,0.1,40.2,0.1,60.4c0.1,95.6,0.2,191.2,0.4,286.8c0.5,253.6,1.1,507.3,1.7,760.9c0.1,24,0.3,47.9,0.4,71.9
		c0,3.5,0.3,7-1.3,11c-1.4-1-2.5-1.4-3.2-2.2c-2-2.6-3.9-5.3-5.7-7.9C791.6,843.8,633.9,615,476.1,386.3
		c-52.1-75.5-104.2-151-156.2-226.6C317.9,156.8,315.4,154.2,314.7,150.4z"/>
</g>
</svg>
